<svg width="319" height="95" viewBox="0 0 319 95" fill="none" xmlns="http://www.w3.org/2000/svg">
<path d="M134.846 39.2767V47.0765H112.286V39.2767H134.846ZM117.41 30.3071H127.8V65.2101C127.8 66.1678 127.947 66.9133 128.239 67.4407C128.531 67.9682 128.941 68.3395 129.472 68.5487C129.999 68.7608 130.612 68.8669 131.314 68.8669C131.804 68.8669 132.29 68.8227 132.777 68.7314C133.263 68.643 133.637 68.5723 133.897 68.5251L135.53 76.2512C135.008 76.4133 134.277 76.6048 133.337 76.8228C132.393 77.0438 131.246 77.1765 129.899 77.2265C127.396 77.3238 125.205 76.9908 123.327 76.2276C121.449 75.4645 119.99 74.277 118.949 72.6681C117.908 71.0592 117.395 69.029 117.413 66.5744V30.3071H117.41Z" fill="#012622"/>
<path d="M151.052 55.0709V76.7169H140.663V26.7979H150.76V45.8833H151.2C152.046 43.6733 153.411 41.9377 155.298 40.6795C157.185 39.4213 159.549 38.7907 162.394 38.7907C164.995 38.7907 167.268 39.3564 169.211 40.485C171.153 41.6136 172.666 43.2313 173.748 45.3352C174.83 47.4391 175.361 49.9526 175.346 52.8786V76.7169H164.956V54.732C164.971 52.4248 164.39 50.6303 163.211 49.3456C162.032 48.0608 160.386 47.4185 158.273 47.4185C156.857 47.4185 155.61 47.719 154.528 48.3201C153.446 48.9213 152.603 49.7935 151.993 50.9397C151.382 52.0859 151.07 53.462 151.055 55.0709H151.052Z" fill="#012622"/>
<path d="M181.82 76.7168V39.2768H191.892V45.8095H192.281C192.965 43.4875 194.109 41.7254 195.718 40.532C197.328 39.3386 199.183 38.7405 201.279 38.7405C201.798 38.7405 202.361 38.7729 202.962 38.8377C203.564 38.9025 204.091 38.9909 204.548 39.1059V48.32C204.062 48.1727 203.387 48.043 202.523 47.9311C201.662 47.8161 200.872 47.7602 200.159 47.7602C198.631 47.7602 197.269 48.0902 196.072 48.7473C194.878 49.4044 193.935 50.3208 193.242 51.4906C192.552 52.6604 192.204 54.01 192.204 55.5364V76.7168H181.814H181.82Z" fill="#012622"/>
<path d="M223.488 77.4476C219.635 77.4476 216.321 76.6637 213.55 75.0961C210.778 73.5285 208.644 71.3009 207.149 68.4161C205.654 65.5313 204.905 62.1162 204.905 58.1677C204.905 54.2192 205.654 50.9366 207.149 48.0283C208.644 45.1199 210.755 42.854 213.479 41.2274C216.203 39.6038 219.402 38.7905 223.075 38.7905C225.546 38.7905 227.852 39.1854 229.989 39.9721C232.127 40.7589 233.996 41.9434 235.6 43.5199C237.2 45.0963 238.448 47.0735 239.344 49.4544C240.237 51.8353 240.685 54.617 240.685 57.8023V60.6546H209.053V54.2192H230.906C230.906 52.7252 230.582 51.3992 229.93 50.2471C229.279 49.092 228.382 48.1874 227.235 47.5303C226.088 46.8732 224.759 46.5431 223.249 46.5431C221.74 46.5431 220.277 46.9056 219.066 47.6275C217.854 48.3494 216.908 49.3189 216.224 50.527C215.54 51.7381 215.192 53.0818 215.174 54.561V60.6782C215.174 62.5316 215.519 64.1317 216.212 65.4812C216.902 66.8308 217.883 67.871 219.151 68.6017C220.419 69.3325 221.923 69.6979 223.662 69.6979C224.818 69.6979 225.873 69.5358 226.831 69.2117C227.79 68.8876 228.612 68.3984 229.293 67.7501C229.977 67.0989 230.496 66.3033 230.853 65.3604L240.461 65.9939C239.975 68.3012 238.978 70.3137 237.475 72.0257C235.971 73.7407 234.037 75.0726 231.67 76.0243C229.305 76.9761 226.575 77.4505 223.488 77.4505V77.4476Z" fill="#012622"/>
<path d="M256.426 77.4208C254.035 77.4208 251.906 77.0024 250.037 76.1656C248.168 75.3287 246.691 74.0852 245.612 72.4351C244.53 70.785 243.99 68.7253 243.99 66.256C243.99 64.1757 244.371 62.4283 245.137 61.0139C245.901 59.5995 246.941 58.4621 248.259 57.6017C249.577 56.7413 251.075 56.0901 252.758 55.651C254.442 55.212 256.211 54.9026 258.062 54.7258C260.241 54.4989 261.995 54.2838 263.331 54.0805C264.663 53.8771 265.63 53.5736 266.232 53.167C266.833 52.7604 267.134 52.1592 267.134 51.3636V51.2163C267.134 49.6723 266.651 48.4789 265.684 47.6332C264.716 46.7875 263.346 46.3661 261.574 46.3661C259.704 46.3661 258.216 46.7757 257.11 47.5978C256.004 48.42 255.273 49.4454 254.916 50.68L245.308 49.8992C245.795 47.6244 246.756 45.6531 248.186 43.9882C249.616 42.3233 251.467 41.0386 253.734 40.1369C256.001 39.2353 258.631 38.7844 261.624 38.7844C263.705 38.7844 265.701 39.029 267.612 39.5152C269.522 40.0014 271.22 40.7587 272.709 41.7812C274.198 42.8037 275.371 44.1179 276.232 45.7179C277.093 47.3179 277.524 49.2332 277.524 51.4579V76.7107H267.671V71.5187H267.379C266.777 72.6885 265.972 73.7169 264.964 74.6009C263.956 75.4878 262.744 76.1773 261.329 76.6724C259.914 77.1674 258.28 77.4149 256.426 77.4149V77.4208ZM259.401 70.2546C260.928 70.2546 262.278 69.9511 263.449 69.3411C264.619 68.7312 265.539 67.9061 266.205 66.8659C266.872 65.8258 267.205 64.6471 267.205 63.3329V59.3608C266.88 59.573 266.435 59.7645 265.875 59.9325C265.315 60.1034 264.684 60.2566 263.985 60.3951C263.287 60.5336 262.588 60.6544 261.889 60.7605C261.19 60.8666 260.556 60.9609 259.987 61.0404C258.767 61.2202 257.703 61.5031 256.792 61.895C255.881 62.2839 255.173 62.8084 254.669 63.4655C254.165 64.1226 253.914 64.9388 253.914 65.9142C253.914 67.3286 254.43 68.4041 255.462 69.1437C256.494 69.8833 257.806 70.2516 259.401 70.2516V70.2546Z" fill="#012622"/>
<path d="M297.681 77.3237C294.836 77.3237 292.262 76.5871 289.963 75.1167C287.663 73.6463 285.841 71.4776 284.499 68.6076C283.158 65.7405 282.489 62.2163 282.489 58.0409C282.489 53.8655 283.179 50.1793 284.561 47.3269C285.944 44.4746 287.784 42.3382 290.086 40.918C292.386 39.4947 294.91 38.7846 297.658 38.7846C299.754 38.7846 301.508 39.1382 302.914 39.8454C304.321 40.5526 305.459 41.4307 306.328 42.4767C307.198 43.5257 307.861 44.5541 308.316 45.5589H308.634V26.7917H319V76.7108H308.758V70.7144H308.318C307.832 71.7546 307.145 72.783 306.258 73.7966C305.37 74.8132 304.226 75.653 302.82 76.3189C301.414 76.9849 299.701 77.3179 297.687 77.3179L297.681 77.3237ZM300.974 69.0613C302.649 69.0613 304.067 68.6017 305.229 67.6853C306.39 66.7659 307.287 65.4782 307.912 63.8222C308.537 62.1662 308.849 60.2244 308.849 57.9967C308.849 55.769 308.54 53.836 307.923 52.1948C307.304 50.5535 306.411 49.2864 305.24 48.3936C304.07 47.5008 302.646 47.0529 300.971 47.0529C299.297 47.0529 297.826 47.5155 296.655 48.4407C295.485 49.366 294.597 50.6507 293.996 52.292C293.394 53.9333 293.094 55.8339 293.094 57.9967C293.094 60.1595 293.397 62.0955 294.008 63.7603C294.618 65.4252 295.502 66.7276 296.667 67.6617C297.829 68.5958 299.264 69.0643 300.971 69.0643L300.974 69.0613Z" fill="#012622"/>
<path d="M73.1315 80.7771C78.5846 80.7771 83.0052 76.359 83.0052 70.9088C83.0052 65.4587 78.5846 61.0405 73.1315 61.0405C67.6784 61.0405 63.2578 65.4587 63.2578 70.9088C63.2578 76.359 67.6784 80.7771 73.1315 80.7771Z" fill="#E98A15"/>
<path d="M34.1789 20.6775C39.632 20.6775 44.0526 16.2593 44.0526 10.8092C44.0526 5.35911 39.632 0.940918 34.1789 0.940918C28.7258 0.940918 24.3052 5.35911 24.3052 10.8092C24.3052 16.2593 28.7258 20.6775 34.1789 20.6775Z" fill="#E98A15"/>
<path d="M32.0417 46.1246C31.744 44.6689 31.6319 43.2162 31.6879 41.7959C31.6997 41.5366 31.4609 41.3392 31.2074 41.3893L23.0672 43.0483C22.3567 43.1926 21.6226 42.9451 21.1509 42.3941C18.4532 39.2471 14.2018 37.5911 9.85611 38.3867C3.33162 39.5801 -1.02885 45.9212 0.206468 52.4392C1.45653 59.0368 7.86014 63.3153 14.42 61.9805C18.8512 61.0758 22.2123 57.8434 23.4859 53.8182C23.7041 53.1287 24.2819 52.616 24.9925 52.4716L33.1326 50.8127C33.3861 50.7596 33.5247 50.4856 33.4156 50.2499C32.8053 48.9651 32.3425 47.5861 32.0447 46.1275L32.0417 46.1246Z" fill="#012622"/>
<path d="M90.4199 23.1821C83.6006 21.6823 77.993 25.3921 76.0148 30.6548C75.6138 31.7244 74.7116 32.5259 73.5942 32.7528L65.2979 34.4442C63.4817 34.8155 61.6243 34.179 60.3743 32.8117C57.0634 29.1903 51.9894 27.3487 46.83 28.3977C40.677 29.6529 36.2428 34.6505 35.4202 40.532C35.1991 42.1114 35.2404 43.7556 35.5765 45.4057C35.9126 47.0588 36.5199 48.5851 37.3425 49.9494L37.5164 50.2411C37.8673 50.8275 37.8525 51.5612 37.4752 52.1329L36.0453 54.2928L29.7389 63.8252C28.7159 65.3722 26.9528 66.2444 25.0984 66.1707C22.0587 66.0528 18.851 66.8985 15.832 68.9582C13.4705 70.57 11.0352 74.2091 10.4514 77.0085C7.63586 90.5306 21.9261 99.9982 33.2827 92.163C36.0423 90.2595 37.9587 87.3423 38.625 84.0598C39.4387 80.0553 38.7488 76.4044 37.0801 73.4636C36.4669 72.3822 36.4816 71.0562 37.1685 70.019L44.2797 59.2726C45.3028 57.7256 47.0688 56.8269 48.9232 56.9241C50.0996 56.986 51.3054 56.9064 52.5142 56.6678C57.6707 55.6453 61.6597 51.9443 63.3078 47.2945C63.9269 45.5471 65.3951 44.2329 67.2142 43.8646L75.5224 42.1703C76.6251 41.9463 77.7601 42.3088 78.5326 43.125C81.2921 46.0392 85.4492 47.5037 89.6711 46.6433C97.8378 44.9784 102.369 35.4048 96.8973 27.5402C95.3612 25.3302 93.0468 23.7597 90.417 23.1821H90.4199Z" fill="#012622"/>
</svg>
