<svg width="475" height="135" viewBox="0 0 475 135" fill="none" xmlns="http://www.w3.org/2000/svg">
<g clip-path="url(#clip0_10100_679)">
<path d="M211.839 55.0218V66.2165H179.6V55.0218H211.839ZM186.923 42.1481H201.77V92.2429C201.77 93.6174 201.981 94.6874 202.398 95.4444C202.815 96.2014 203.4 96.7343 204.159 97.0346C204.913 97.3391 205.789 97.4913 206.792 97.4913C207.491 97.4913 208.187 97.4279 208.882 97.2968C209.577 97.1699 210.112 97.0684 210.483 97.0007L212.817 108.09C212.071 108.322 211.026 108.597 209.682 108.91C208.334 109.227 206.695 109.418 204.77 109.49C201.193 109.629 198.062 109.151 195.379 108.056C192.695 106.96 190.609 105.256 189.122 102.947C187.635 100.638 186.902 97.7239 186.927 94.201V42.1481H186.923Z" fill="white"/>
<path d="M234.999 77.6902V108.758H220.152V37.1111H234.582V64.5036H235.21C236.419 61.3317 238.37 58.8407 241.066 57.0349C243.763 55.229 247.142 54.324 251.208 54.324C254.924 54.324 258.172 55.136 260.948 56.7557C263.725 58.3755 265.886 60.6973 267.433 63.717C268.979 66.7366 269.737 70.3441 269.716 74.5437V108.758H254.869V77.2039C254.89 73.8924 254.06 71.3168 252.375 69.4729C250.689 67.629 248.338 66.707 245.318 66.707C243.295 66.707 241.513 67.1384 239.967 68.0012C238.421 68.8639 237.216 70.1157 236.343 71.7609C235.471 73.4061 235.025 75.3811 235.004 77.6902H234.999Z" fill="white"/>
<path d="M278.968 108.758V55.0218H293.361V64.3979H293.917C294.894 61.0653 296.529 58.5362 298.829 56.8234C301.13 55.1106 303.78 54.2521 306.775 54.2521C307.517 54.2521 308.322 54.2986 309.181 54.3916C310.041 54.4847 310.795 54.6116 311.448 54.7765V68.0012C310.753 67.7897 309.788 67.6036 308.553 67.4429C307.323 67.278 306.194 67.1976 305.174 67.1976C302.992 67.1976 301.046 67.6713 299.335 68.6144C297.629 69.5575 296.28 70.8728 295.29 72.5518C294.304 74.2308 293.807 76.1677 293.807 78.3585V108.758H278.96H278.968Z" fill="white"/>
<path d="M338.513 109.807C333.007 109.807 328.271 108.682 324.311 106.432C320.35 104.182 317.3 100.985 315.164 96.8442C313.028 92.7039 311.958 87.8022 311.958 82.1351C311.958 76.468 313.028 71.7567 315.164 67.5825C317.3 63.4082 320.317 60.156 324.21 57.8215C328.102 55.4912 332.674 54.3239 337.923 54.3239C341.454 54.3239 344.749 54.8907 347.803 56.0199C350.858 57.149 353.529 58.8492 355.821 61.1118C358.109 63.3744 359.891 66.2122 361.172 69.6294C362.448 73.0466 363.089 77.0389 363.089 81.6107V85.7045H317.885V76.468H349.114C349.114 74.3238 348.65 72.4207 347.719 70.767C346.788 69.1092 345.507 67.8108 343.868 66.8677C342.229 65.9246 340.329 65.4509 338.172 65.4509C336.015 65.4509 333.925 65.9711 332.194 67.0073C330.462 68.0434 329.109 69.4348 328.132 71.1688C327.155 72.907 326.657 74.8355 326.632 76.9586V85.7384C326.632 88.3985 327.125 90.695 328.115 92.632C329.101 94.5689 330.504 96.0618 332.316 97.1107C334.127 98.1595 336.276 98.6839 338.762 98.6839C340.413 98.6839 341.922 98.4513 343.291 97.9861C344.66 97.5209 345.836 96.8189 346.809 95.8884C347.787 94.9538 348.528 93.8119 349.038 92.4586L362.769 93.3678C362.074 96.6793 360.649 99.5678 358.501 102.025C356.352 104.486 353.588 106.398 350.205 107.764C346.826 109.13 342.925 109.811 338.513 109.811V109.807Z" fill="white"/>
<path d="M385.583 109.769C382.166 109.769 379.124 109.168 376.453 107.967C373.782 106.766 371.671 104.981 370.129 102.613C368.583 100.245 367.812 97.2883 367.812 93.7442C367.812 90.7584 368.356 88.2505 369.451 86.2205C370.542 84.1905 372.029 82.558 373.913 81.3231C375.796 80.0882 377.936 79.1535 380.342 78.5234C382.748 77.8932 385.276 77.4492 387.922 77.1954C391.035 76.8698 393.542 76.561 395.451 76.2692C397.355 75.9774 398.737 75.5418 399.596 74.9582C400.456 74.3745 400.886 73.5118 400.886 72.3699V72.1584C400.886 69.9424 400.195 68.2295 398.813 67.0158C397.431 65.802 395.472 65.1972 392.94 65.1972C390.268 65.1972 388.141 65.7851 386.561 66.965C384.981 68.1449 383.936 69.6167 383.426 71.3887L369.695 70.268C370.39 67.0031 371.764 64.1737 373.807 61.7842C375.851 59.3948 378.497 57.5508 381.737 56.2567C384.977 54.9626 388.735 54.3155 393.011 54.3155C395.986 54.3155 398.838 54.6665 401.568 55.3643C404.298 56.0622 406.725 57.1491 408.853 58.6166C410.98 60.0841 412.657 61.9703 413.888 64.2668C415.118 66.5632 415.733 69.3122 415.733 72.5052V108.749H401.652V101.298H401.235C400.376 102.977 399.226 104.453 397.785 105.721C396.344 106.994 394.612 107.984 392.59 108.694C390.567 109.405 388.233 109.76 385.583 109.76V109.769ZM389.834 99.4832C392.017 99.4832 393.946 99.0476 395.619 98.1722C397.292 97.2968 398.606 96.1126 399.558 94.6197C400.511 93.1268 400.987 91.4351 400.987 89.5489V83.8479C400.523 84.1524 399.887 84.4273 399.087 84.6684C398.286 84.9137 397.384 85.1336 396.386 85.3324C395.387 85.5312 394.389 85.7045 393.39 85.8568C392.392 86.009 391.486 86.1444 390.673 86.2586C388.929 86.5166 387.408 86.9226 386.106 87.485C384.804 88.0433 383.793 88.7961 383.072 89.7392C382.352 90.6823 381.994 91.8538 381.994 93.2537C381.994 95.2837 382.731 96.8273 384.206 97.8889C385.68 98.9504 387.555 99.479 389.834 99.479V99.4832Z" fill="white"/>
<path d="M444.539 109.629C440.473 109.629 436.795 108.572 433.509 106.461C430.222 104.351 427.619 101.238 425.702 97.1191C423.785 93.0041 422.828 87.946 422.828 81.9533C422.828 75.9605 423.814 70.6698 425.79 66.5759C427.766 62.4821 430.395 59.4159 433.686 57.3774C436.972 55.3347 440.578 54.3155 444.505 54.3155C447.501 54.3155 450.007 54.823 452.017 55.838C454.027 56.853 455.653 58.1133 456.896 59.6147C458.139 61.1203 459.087 62.5963 459.736 64.0384H460.191V37.1027H475.004V108.749H460.368V100.143H459.74C459.045 101.636 458.063 103.112 456.795 104.567C455.527 106.026 453.892 107.231 451.882 108.187C449.873 109.143 447.425 109.621 444.547 109.621L444.539 109.629ZM449.245 97.7704C451.638 97.7704 453.664 97.1107 455.324 95.7954C456.984 94.4759 458.265 92.6277 459.159 90.2509C460.052 87.8741 460.498 85.0871 460.498 81.8898C460.498 78.6926 460.056 75.9182 459.175 73.5625C458.291 71.2069 457.014 69.3883 455.341 68.1069C453.669 66.8254 451.634 66.1826 449.241 66.1826C446.848 66.1826 444.745 66.8466 443.073 68.1746C441.4 69.5025 440.132 71.3465 439.272 73.7021C438.413 76.0578 437.983 78.7856 437.983 81.8898C437.983 84.994 438.417 87.7726 439.289 90.1621C440.161 92.5516 441.425 94.4209 443.089 95.7616C444.749 97.1022 446.801 97.7747 449.241 97.7747L449.245 97.7704Z" fill="white"/>
<path d="M104.513 114.586C112.306 114.586 118.623 108.244 118.623 100.422C118.623 92.5998 112.306 86.2586 104.513 86.2586C96.7201 86.2586 90.4028 92.5998 90.4028 100.422C90.4028 108.244 96.7201 114.586 104.513 114.586Z" fill="white"/>
<path d="M48.848 28.3271C56.6408 28.3271 62.958 21.9859 62.958 14.1636C62.958 6.34124 56.6408 0 48.848 0C41.0553 0 34.738 6.34124 34.738 14.1636C34.738 21.9859 41.0553 28.3271 48.848 28.3271Z" fill="white"/>
<path d="M45.7933 64.8504C45.3678 62.7612 45.2077 60.6762 45.2878 58.6377C45.3046 58.2656 44.9633 57.9822 44.601 58.0541L32.9684 60.4351C31.953 60.6424 30.9039 60.2871 30.2298 59.4963C26.3747 54.9795 20.2993 52.6027 14.089 53.7446C4.76523 55.4574 -1.46609 64.5586 0.299239 73.9136C2.08563 83.3827 11.2367 89.5235 20.6111 87.6077C26.9435 86.3093 31.7465 81.6699 33.5666 75.8928C33.8784 74.9032 34.7042 74.1673 35.7196 73.9601L47.3522 71.5791C47.7146 71.5029 47.9126 71.1096 47.7567 70.7713C46.8846 68.9274 46.2231 66.9481 45.7975 64.8546L45.7933 64.8504Z" fill="white"/>
<path d="M129.219 31.9219C119.474 29.7693 111.46 35.0938 108.633 42.6472C108.06 44.1824 106.771 45.3327 105.174 45.6583L93.3181 48.0859C90.7227 48.6188 88.0684 47.7053 86.282 45.7429C81.5506 40.5453 74.2997 37.902 66.9266 39.4076C58.1337 41.2092 51.797 48.3819 50.6215 56.8234C50.3056 59.0903 50.3645 61.4501 50.8448 63.8185C51.3251 66.1911 52.1931 68.3818 53.3685 70.3399L53.6171 70.7586C54.1185 71.6002 54.0974 72.6533 53.5581 73.4737L51.5147 76.5737L42.5027 90.2552C41.0407 92.4755 38.5212 93.7273 35.8711 93.6216C31.5273 93.4524 26.9434 94.6662 22.6291 97.6224C19.2543 99.9358 15.7742 105.159 14.94 109.177C10.9164 128.584 31.3377 142.173 47.567 130.927C51.5105 128.195 54.2491 124.008 55.2013 119.297C56.3641 113.55 55.3782 108.31 52.9936 104.089C52.1172 102.537 52.1383 100.634 53.12 99.1449L63.2822 83.7211C64.7442 81.5007 67.2679 80.2108 69.918 80.3504C71.599 80.4392 73.3222 80.325 75.0497 79.9825C82.4185 78.5149 88.119 73.2031 90.4742 66.5294C91.3589 64.0215 93.4571 62.1353 96.0567 61.6066L107.929 59.1748C109.505 58.8534 111.127 59.3736 112.231 60.5451C116.175 64.7278 122.115 66.8297 128.149 65.5948C139.819 63.2053 146.295 49.4646 138.475 38.1769C136.28 35.005 132.973 32.7509 129.215 31.9219H129.219Z" fill="white"/>
</g>
<defs>
<clipPath id="clip0_10100_679">
<rect width="475" height="135" fill="white"/>
</clipPath>
</defs>
</svg>
